<svg width="32" height="32" viewBox="0 0 32 32" fill="none" xmlns="http://www.w3.org/2000/svg">
<path fill-rule="evenodd" clip-rule="evenodd" d="M14.5823 21.7123L13.458 18.1918H9.5045L8.43557 21.7123H6.09131L10.0784 9.28906H12.9764L17.0206 21.7123H14.5823ZM10.8352 13.4179L9.87536 16.4776H13.0687L12.0904 13.4179C11.8994 12.79 11.726 12.1569 11.5702 11.5194C11.5347 11.378 11.4989 11.2367 11.4628 11.0954H11.4259L11.2346 11.8746C11.1104 12.394 10.9829 12.9336 10.8352 13.4179ZM25.3824 16.9015C25.3824 17.3255 25.3455 17.6573 25.3086 17.86H19.291C19.3464 19.482 20.62 20.1825 22.0598 20.1825C23.112 20.1825 23.8688 20.035 24.5518 19.777L24.884 21.3437C24.1088 21.657 23.0381 21.9151 21.746 21.9151C18.8295 21.9151 17.1129 20.1087 17.1129 17.3623C17.1129 14.874 18.6265 12.5331 21.5061 12.5331C24.441 12.5331 25.3824 14.9293 25.3824 16.9015ZM21.3769 14.0814C19.974 14.0814 19.3833 15.3532 19.291 16.2748H23.2412C23.258 15.4454 22.8888 14.0814 21.3769 14.0814Z" fill="black"/>
<path fill-rule="evenodd" clip-rule="evenodd" d="M24.6676 0.486866C18.8033 -0.162289 12.8852 -0.162289 7.02098 0.486866C3.6447 0.863887 0.917833 3.51979 0.521808 6.90796C-0.173936 12.8474 -0.173936 18.8477 0.521808 24.7871C0.917833 28.1753 3.64302 30.8312 7.02098 31.2082C12.8852 31.8567 18.8033 31.8567 24.6676 31.2082C28.0438 30.8312 30.7707 28.1753 31.1667 24.7871C31.8624 18.8477 31.8624 12.8474 31.1667 6.90796C30.7707 3.51979 28.0455 0.863887 24.6676 0.486866ZM7.29954 2.98358C12.9786 2.355 18.7099 2.355 24.389 2.98358C26.6208 3.23493 28.408 4.99269 28.6681 7.2012C29.3409 12.9459 29.3409 18.7492 28.6681 24.4939C28.5336 25.5748 28.038 26.5788 27.2616 27.3438C26.4852 28.1088 25.4731 28.59 24.389 28.7098C18.7099 29.3385 12.9786 29.3385 7.29954 28.7098C6.2154 28.59 5.20338 28.1088 4.42694 27.3438C3.6505 26.5788 3.15499 25.5748 3.02046 24.4939C2.34763 18.7492 2.34763 12.9459 3.02046 7.2012C3.15499 6.12033 3.6505 5.11632 4.42694 4.35134C5.20338 3.58636 6.2154 3.10341 7.29954 2.98358Z" fill="black"/>
</svg>
