<svg width="31" height="32" viewBox="0 0 31 32" fill="none" xmlns="http://www.w3.org/2000/svg">
<g clip-path="url(#clip0_664_243)">
<path d="M21.8516 12.7423V21.7735H19.6186V12.7423H21.8516ZM19.4941 10.2203C19.4941 9.51557 19.9967 8.97778 20.7351 8.97778C21.4931 8.97778 21.9597 9.51557 21.9793 10.2203C21.9793 10.9064 21.4914 11.4442 20.7187 11.4442C19.9804 11.4442 19.4941 10.9064 19.4941 10.2203Z" fill="black"/>
<path fill-rule="evenodd" clip-rule="evenodd" d="M15.8476 21.7737L14.7491 18.2317H10.8953L9.8508 21.7737H7.56372L11.4536 9.27466H14.2809L18.2248 21.7737H15.8476ZM12.1919 13.4286L11.2555 16.507H14.3709L13.4165 13.4286C13.2266 12.8133 13.0612 12.1373 12.909 11.5185C12.8744 11.3763 12.8394 11.2341 12.8042 11.092H12.7682C12.706 11.3398 12.6454 11.6045 12.5815 11.8759C12.4604 12.3986 12.3343 12.9414 12.1919 13.4286Z" fill="black"/>
<path fill-rule="evenodd" clip-rule="evenodd" d="M24.0224 0.418788C18.3012 -0.234323 12.5275 -0.234323 6.80626 0.418788C3.51234 0.798108 0.851987 3.4702 0.465623 6.87902C-0.21315 12.8547 -0.21315 18.8915 0.465623 24.8672C0.851987 28.276 3.5107 30.9481 6.80626 31.3274C12.5275 31.9799 18.3012 31.9799 24.0224 31.3274C27.3163 30.9481 29.9767 28.276 30.363 24.8672C31.0418 18.8915 31.0418 12.8547 30.363 6.87902C29.9767 3.4702 27.318 0.798108 24.0224 0.418788ZM7.07802 2.93073C12.6186 2.29831 18.2101 2.29831 23.7506 2.93073C25.928 3.1836 27.6716 4.95208 27.9253 7.17405C28.5818 12.9537 28.5818 18.7925 27.9253 24.5722C27.7941 25.6596 27.3107 26.6697 26.5532 27.4394C25.7957 28.209 24.8083 28.6932 23.7506 28.8138C18.2101 29.4463 12.6186 29.4463 7.07802 28.8138C6.02034 28.6932 5.033 28.209 4.2755 27.4394C3.518 26.6697 3.03458 25.6596 2.90332 24.5722C2.24691 18.7925 2.24691 12.9537 2.90332 7.17405C3.03458 6.08659 3.518 5.07646 4.2755 4.30681C5.033 3.53717 6.02034 3.05128 7.07802 2.93073Z" fill="black"/>
</g>
<defs>
<clipPath id="clip0_664_243">
<rect width="30.8286" height="31.7461" fill="white"/>
</clipPath>
</defs>
</svg>
