<svg width="37" height="30" viewBox="0 0 37 30" fill="none" xmlns="http://www.w3.org/2000/svg">
<path d="M19.0872 16.7712C19.1524 15.5459 19.7542 14.464 20.6533 13.6999C21.603 12.9119 22.7991 12.4846 24.0316 12.4929C25.3254 12.4929 26.5163 12.953 27.4041 13.6999C28.3044 14.4651 28.8993 15.5459 28.9702 16.7712C29.0354 18.0252 28.5355 19.1978 27.6477 20.0629C26.6746 20.9951 25.3773 21.51 24.0316 21.4982C22.682 21.5107 21.3805 20.996 20.4028 20.0629C19.5208 19.1967 19.0151 18.0252 19.0861 16.7712H19.0872ZM11.2165 19.2448C11.2211 19.7233 11.3767 20.6549 11.602 21.3834C12.0958 22.949 12.9256 24.387 14.033 25.5963C15.2192 26.9053 16.6663 27.9497 18.2807 28.662C20.0401 29.4375 21.9427 29.8327 23.8645 29.8219C25.7872 29.8278 27.6894 29.427 29.4472 28.6459C31.0603 27.9257 32.5067 26.8775 33.6949 25.5677C34.798 24.3512 35.6254 22.9097 36.1202 21.3421C36.5968 19.8229 36.727 18.2157 36.5011 16.6393C36.2881 15.1296 35.7599 13.6819 34.951 12.3908C34.2055 11.1865 33.2485 10.1276 32.1265 9.26553L20.6636 0.432395C19.9132 -0.146996 18.6502 -0.14126 17.8277 0.432395C16.9937 1.01867 16.8976 1.987 17.6355 2.60196L22.4037 6.49249L7.84744 6.51084C6.64282 6.51084 5.49424 7.29905 5.26087 8.30409C5.02864 9.31946 5.83859 10.1627 7.09012 10.1673L14.4609 10.157L1.25802 20.3141C0.0190745 21.2641 -0.38018 22.8531 0.401169 23.8524C1.19282 24.8747 2.88021 24.8747 4.13632 23.8582L11.3103 17.9713C11.3103 17.9713 11.2039 18.7664 11.2154 19.2437L11.2165 19.2448ZM29.6555 21.9032C28.1728 23.4165 26.1045 24.2758 23.8657 24.2758C21.6246 24.2815 19.5505 23.4325 18.0736 21.9272C17.3751 21.2219 16.8363 20.3739 16.4938 19.441C16.1803 18.5643 16.0566 17.6308 16.1308 16.7024C16.2049 15.7741 16.4753 14.8722 16.9239 14.0567C17.3718 13.2522 17.9681 12.5405 18.6811 11.9594C20.118 10.7892 21.9472 10.1558 23.8657 10.1501C25.7773 10.1501 27.6077 10.7777 29.0423 11.9479C29.7585 12.5239 30.3554 13.2348 30.7995 14.0406C31.2468 14.8403 31.5213 15.7306 31.5991 16.6519C31.6821 17.5895 31.5583 18.5339 31.2365 19.4181C30.8916 20.3498 30.3531 21.1973 29.6566 21.9043L29.6555 21.9032Z" fill="black"/>
</svg>
