<svg width="32" height="31" viewBox="0 0 32 31" fill="none" xmlns="http://www.w3.org/2000/svg">
<path fill-rule="evenodd" clip-rule="evenodd" d="M7.32337 2.89803C13.021 2.28747 18.771 2.28747 24.4686 2.89803C25.5563 3.01441 26.5716 3.48189 27.3506 4.22493C28.1296 4.96798 28.6267 5.9432 28.7617 6.99307C29.4367 12.573 29.4367 18.21 28.7617 23.7899C28.6267 24.8398 28.1296 25.815 27.3506 26.558C26.5716 27.3011 25.5563 27.7686 24.4686 27.8849C18.771 28.4956 13.021 28.4956 7.32337 27.8849C6.2357 27.7686 5.22037 27.3011 4.44139 26.558C3.66242 25.815 3.16529 24.8398 3.03032 23.7899C2.35529 18.21 2.35529 12.573 3.03032 6.99307C3.16529 5.9432 3.66242 4.96798 4.44139 4.22493C5.22037 3.48189 6.2357 3.01441 7.32337 2.89803ZM24.7481 0.472905C18.8647 -0.157635 12.9273 -0.157635 7.0439 0.472905C3.6566 0.837487 0.920829 3.41723 0.523512 6.70824C-0.174504 12.4774 -0.174504 18.3056 0.523512 24.0747C0.920829 27.3657 3.65491 29.9455 7.0439 30.3117C12.9273 30.9416 18.8647 30.9416 24.7481 30.3117C28.1354 29.9455 30.8712 27.3657 31.2685 24.0747C31.9665 18.3056 31.9665 12.4774 31.2685 6.70824C30.8712 3.41723 28.1371 0.837487 24.7481 0.471277V0.472905ZM11.4767 21.0881L9.21736 21.0881L9.21736 9.18219C10.0322 9.03896 11.1619 8.93154 12.6989 8.93154C14.3657 8.93154 15.5879 9.27171 16.3842 9.91624C17.125 10.5071 17.6065 11.4559 17.6065 12.5839C17.6065 13.7297 17.2361 14.6786 16.5324 15.3231C15.6233 16.2004 14.199 16.6122 12.5878 16.6122C12.1619 16.6122 11.773 16.5943 11.4767 16.5406L11.4767 21.0881ZM12.7899 10.6145C12.1619 10.6145 11.7174 10.6682 11.4767 10.7219V14.8039C11.7545 14.8755 12.1249 14.8934 12.5878 14.8934C14.2916 14.8934 15.3286 14.0878 15.3286 12.6734C15.3286 11.3306 14.3657 10.6145 12.7915 10.6145H12.7899ZM20.7884 21.0881H18.5106V15.1799C18.5106 13.9983 18.4937 13.1568 18.4365 12.369H20.418L20.4921 14.0341H20.5662C21.0106 12.7987 22.0662 12.1721 23.0292 12.1721C23.2514 12.1721 23.3827 12.19 23.5679 12.2258V14.3026C23.3484 14.2559 23.1244 14.2319 22.8996 14.231C21.8069 14.231 21.0662 14.9113 20.8625 15.896C20.8166 16.1202 20.7918 16.3479 20.7884 16.5764V21.0881Z" fill="black"/>
</svg>
