<svg width="32" height="34" viewBox="0 0 32 34" fill="none" xmlns="http://www.w3.org/2000/svg">
<g clip-path="url(#clip0_664_249)">
<path fill-rule="evenodd" clip-rule="evenodd" d="M10.5372 23.1249H8.24463L8.24463 10.3237C9.07146 10.1697 10.2178 10.0542 11.7775 10.0542C13.4687 10.0542 14.709 10.4199 15.5187 11.1129C16.2704 11.7482 16.7573 12.7684 16.7573 13.9812C16.7573 15.2132 16.3814 16.2334 15.6673 16.9264C14.7465 17.8697 13.2996 18.3124 11.6647 18.3124C11.2325 18.3124 10.8379 18.2932 10.5372 18.2354V23.1249ZM11.8714 11.8637C11.2325 11.8637 10.7815 11.9214 10.5389 11.9792V16.3682C10.8191 16.4452 11.1949 16.4644 11.6664 16.4644C13.3935 16.4644 14.4459 15.5982 14.4459 14.0774C14.4459 12.6337 13.4687 11.8637 11.8714 11.8637Z" fill="black"/>
<path d="M19.7111 23.3368C18.6007 23.3368 17.6064 23.0481 16.9299 22.6631L17.3809 20.9498C17.9071 21.2771 18.9013 21.6236 19.7299 21.6236C20.7446 21.6236 21.1956 21.2001 21.1956 20.5841C21.1956 19.9488 20.8198 19.6216 19.6923 19.2173C17.9071 18.5821 17.1554 17.5811 17.1742 16.4838C17.1742 14.8283 18.5067 13.5386 20.6319 13.5386C21.6466 13.5386 22.5281 13.8081 23.056 14.0968L22.605 15.7716C22.0132 15.4309 21.3482 15.2457 20.6695 15.2326C19.8426 15.2326 19.3916 15.6368 19.3916 16.2143C19.3916 16.8111 19.8238 17.0998 20.9889 17.5233C22.6426 18.1393 23.4131 19.0056 23.4318 20.3916C23.4318 22.0856 22.1335 23.3368 19.7111 23.3368Z" fill="black"/>
<path fill-rule="evenodd" clip-rule="evenodd" d="M25.1131 0.957687C19.1432 0.279729 13.1183 0.279729 7.14831 0.957687C3.71115 1.35144 0.935106 4.12519 0.531939 7.66369C-0.176336 13.8667 -0.176336 20.1332 0.531939 26.3362C0.935106 29.8747 3.70944 32.6484 7.14831 33.0422C13.1183 33.7194 19.1431 33.7194 25.1131 33.0422C28.5503 32.6484 31.3264 29.8747 31.7295 26.3362C32.4379 20.1332 32.4379 13.8667 31.7295 7.66369C31.3264 4.12519 28.552 1.35144 25.1131 0.957687ZM7.4319 3.56519C13.2134 2.90871 19.048 2.90871 24.8296 3.56519C27.1016 3.82769 28.921 5.66344 29.1858 7.96994C29.8708 13.9695 29.8708 20.0304 29.1858 26.0299C29.0489 27.1588 28.5444 28.2073 27.754 29.0062C26.9635 29.8052 25.9332 30.3078 24.8296 30.4329C19.048 31.0895 13.2134 31.0895 7.4319 30.4329C6.32821 30.3078 5.29794 29.8052 4.50749 29.0062C3.71705 28.2073 3.21261 27.1588 3.07565 26.0299C2.39069 20.0304 2.39069 13.9695 3.07565 7.96994C3.21261 6.84111 3.71705 5.79255 4.50749 4.99363C5.29794 4.1947 6.32821 3.69033 7.4319 3.56519Z" fill="black"/>
</g>
<defs>
<clipPath id="clip0_664_249">
<rect width="32" height="34" fill="white"/>
</clipPath>
</defs>
</svg>
